<svg width="16" height="16" viewBox="0 0 16 16" fill="none" xmlns="http://www.w3.org/2000/svg">
<g clip-path="url(#clip0_1008_86)">
<path fill-rule="evenodd" clip-rule="evenodd" d="M10.0788 15.9661C15.4177 15.8119 15.9431 14.6881 15.9431 8.3079C15.9431 1.26789 15.3031 0.627892 8.26311 0.627892C1.22313 0.627892 0.58313 1.26789 0.58313 8.3079C0.58313 14.7047 1.11177 15.8177 6.48903 15.9674C6.53575 15.9092 6.55303 15.8362 6.55303 15.762C6.55303 15.602 6.54663 13.9597 6.54343 13.3946C4.59977 13.8036 4.18953 12.4865 4.18953 12.4865C3.87145 11.7044 3.41321 11.4957 3.41321 11.4957C2.77897 11.0759 3.46121 11.0842 3.46121 11.0842C4.16265 11.1322 4.53193 11.7825 4.53193 11.7825C5.15529 12.8173 6.16777 12.5185 6.56583 12.345C6.62919 11.9079 6.80967 11.609 7.00935 11.4401C5.45737 11.2692 3.82601 10.6881 3.82601 8.09286C3.82601 7.35366 4.09865 6.7495 4.54537 6.27589C4.47305 6.10437 4.23369 5.41573 4.61385 4.48389C4.61385 4.48389 5.20073 4.30149 6.53575 5.17765C7.09319 5.02725 7.69095 4.95237 8.28551 4.94981C8.87879 4.95237 9.47655 5.02725 10.0353 5.17765C11.3697 4.30149 11.9553 4.48389 11.9553 4.48389C12.3367 5.41573 12.0967 6.10437 12.0244 6.27589C12.4724 6.7495 12.7431 7.35366 12.7431 8.09286C12.7431 10.6945 11.1092 11.2673 9.55207 11.4343C9.80295 11.6436 10.0263 12.057 10.0263 12.6887C10.0263 13.2941 10.0225 14.3649 10.0199 15.0746C10.0186 15.426 10.018 15.6884 10.018 15.762C10.018 15.8317 10.0365 15.9053 10.0788 15.9661Z" fill="#2399A6"/>
</g>
<defs>
<clipPath id="clip0_1008_86">
<rect width="16" height="16" fill="white"/>
</clipPath>
</defs>
</svg>
