<svg width="16" height="16" viewBox="0 0 16 16" fill="none" xmlns="http://www.w3.org/2000/svg">
<g clip-path="url(#clip0_1008_88)">
<path fill-rule="evenodd" clip-rule="evenodd" d="M14.0452 0C15.1241 0 16 0.875938 16 1.95481V14.0452C16 15.1241 15.1241 16 14.0452 16H1.95481C0.875938 16 0 15.1241 0 14.0452V1.95481C0 0.875938 0.875906 0 1.95481 0L14.0452 0ZM6.10997 13.267C10.3581 13.267 12.6808 9.74691 12.6808 6.69613C12.6808 6.59556 12.6808 6.49497 12.6761 6.39919C13.1263 6.07353 13.519 5.66644 13.8303 5.20188C13.4184 5.38388 12.973 5.50841 12.5037 5.56588C12.9826 5.2785 13.3466 4.82831 13.519 4.28713C13.0736 4.55053 12.5803 4.74213 12.0535 4.84747C11.632 4.39728 11.0333 4.1195 10.3677 4.1195C9.09369 4.1195 8.05922 5.154 8.05922 6.42794C8.05922 6.60994 8.07837 6.78713 8.12147 6.95475C6.20097 6.85897 4.50078 5.93944 3.36094 4.54097C3.16456 4.881 3.04962 5.2785 3.04962 5.69997C3.04962 6.49978 3.45672 7.20859 4.07931 7.62047C3.70097 7.61087 3.34656 7.50553 3.03525 7.33309V7.36184C3.03525 8.48253 3.83028 9.41166 4.88872 9.62716C4.69716 9.67984 4.49122 9.70859 4.28047 9.70859C4.132 9.70859 3.98834 9.69422 3.84466 9.66547C4.13681 10.585 4.98928 11.2507 5.99981 11.2699C5.20959 11.8877 4.21344 12.2565 3.13106 12.2565C2.94428 12.2565 2.76228 12.2469 2.58028 12.2229C3.59081 12.8839 4.80728 13.267 6.10997 13.267Z" fill="#2399A6"/>
</g>
<defs>
<clipPath id="clip0_1008_88">
<rect width="16" height="16" fill="white"/>
</clipPath>
</defs>
</svg>
